<?xml version="1.0" encoding="UTF-8" standalone="no"?>
<!-- Created with Inkscape (http://www.inkscape.org/) -->

<svg
   xmlns:dc="http://purl.org/dc/elements/1.1/"
   xmlns:cc="http://creativecommons.org/ns#"
   xmlns:rdf="http://www.w3.org/1999/02/22-rdf-syntax-ns#"
   xmlns:svg="http://www.w3.org/2000/svg"
   xmlns="http://www.w3.org/2000/svg"
   xmlns:sodipodi="http://sodipodi.sourceforge.net/DTD/sodipodi-0.dtd"
   xmlns:inkscape="http://www.inkscape.org/namespaces/inkscape"
   width="256"
   height="256"
   id="svg2"
   version="1.1"
   inkscape:version="0.48.3.1 r9886"
   sodipodi:docname="cleaning.svg">
  <defs
     id="defs4">
    <style
       id="style2991"
       type="text/css">
   
    .str3 {stroke:#1F1A17;stroke-width:1.05469}
    .str1 {stroke:#72706F;stroke-width:2.44157}
    .str2 {stroke:#1F1A17;stroke-width:2.76822}
    .str0 {stroke:#72706F;stroke-width:4.15233}
    .fil3 {fill:none}
    .fil1 {fill:#00923F}
    .fil2 {fill:#1F1A17}
    .fil0 {fill:#B8DB7C}
   
  </style>
    <style
       id="style3081"
       type="text/css">
   
    .str1 {stroke:#1F1A17;stroke-width:2.76822}
    .str0 {stroke:#72706F;stroke-width:4.15233}
    .fil1 {fill:none}
    .fil3 {fill:#00923F}
    .fil2 {fill:#1F1A17}
    .fil0 {fill:#B8DB7C}
   
  </style>
    <style
       id="style3135"
       type="text/css">
   
    .str1 {stroke:#1F1A17;stroke-width:2.76822}
    .str0 {stroke:#72706F;stroke-width:4.15233}
    .fil1 {fill:none}
    .fil3 {fill:#00923F}
    .fil2 {fill:#1F1A17}
    .fil0 {fill:#B8DB7C}
   
  </style>
    <style
       id="style3203"
       type="text/css">
   
    .str1 {stroke:#1F1A17;stroke-width:1.38411}
    .str2 {stroke:#1F1A17;stroke-width:2.76822}
    .str0 {stroke:#72706F;stroke-width:4.15233}
    .str4 {stroke:#1F1A17;stroke-width:0.895518}
    .str3 {stroke:#72706F;stroke-width:1.34259}
    .fil2 {fill:none}
    .fil0 {fill:#00923F}
    .fil1 {fill:#1F1A17}
    .fil3 {fill:#B8DB7C}
    .fil5 {fill:#1F1A17;fill-rule:nonzero}
    .fil4 {fill:#72706F;fill-rule:nonzero}
    .fil6 {fill:#B8DB7C;fill-rule:nonzero}
   
  </style>
    <style
       id="style3319"
       type="text/css">
   
    .str1 {stroke:#1F1A17;stroke-width:1.38411}
    .str2 {stroke:#1F1A17;stroke-width:2.76822}
    .str0 {stroke:#72706F;stroke-width:4.15233}
    .str4 {stroke:#1F1A17;stroke-width:0.895518}
    .str3 {stroke:#72706F;stroke-width:1.34259}
    .fil2 {fill:none}
    .fil0 {fill:#00923F}
    .fil1 {fill:#1F1A17}
    .fil3 {fill:#B8DB7C}
    .fil5 {fill:#1F1A17;fill-rule:nonzero}
    .fil4 {fill:#72706F;fill-rule:nonzero}
    .fil6 {fill:#B8DB7C;fill-rule:nonzero}
   
  </style>
    <style
       id="style3435"
       type="text/css">
   
    .str1 {stroke:#1F1A17;stroke-width:2.76822}
    .str0 {stroke:#72706F;stroke-width:4.15233}
    .fil1 {fill:none}
    .fil3 {fill:#00923F}
    .fil2 {fill:#1F1A17}
    .fil0 {fill:#B8DB7C}
   
  </style>
    <style
       id="style3502"
       type="text/css">
   
    .str3 {stroke:#1F1A17;stroke-width:1.05469}
    .str1 {stroke:#72706F;stroke-width:2.44157}
    .str2 {stroke:#1F1A17;stroke-width:2.76822}
    .str0 {stroke:#72706F;stroke-width:4.15233}
    .fil3 {fill:none}
    .fil1 {fill:#00923F}
    .fil2 {fill:#1F1A17}
    .fil0 {fill:#B8DB7C}
   
  </style>
    <style
       id="style3592"
       type="text/css">
   
    .str1 {stroke:#1F1A17;stroke-width:2.76822}
    .str0 {stroke:#72706F;stroke-width:4.15233}
    .fil1 {fill:none}
    .fil3 {fill:#00923F}
    .fil2 {fill:#1F1A17}
    .fil0 {fill:#B8DB7C}
   
  </style>
    <style
       id="style3646"
       type="text/css">
   
    .str1 {stroke:#1F1A17;stroke-width:2.76822}
    .str0 {stroke:#72706F;stroke-width:4.15233}
    .fil1 {fill:none}
    .fil3 {fill:#00923F}
    .fil2 {fill:#1F1A17}
    .fil0 {fill:#B8DB7C}
   
  </style>
    <style
       id="style3714"
       type="text/css">
   
    .str3 {stroke:#1F1A17;stroke-width:1.05469}
    .str1 {stroke:#72706F;stroke-width:2.44157}
    .str2 {stroke:#1F1A17;stroke-width:2.76822}
    .str0 {stroke:#72706F;stroke-width:4.15233}
    .fil3 {fill:none}
    .fil1 {fill:#00923F}
    .fil2 {fill:#1F1A17}
    .fil0 {fill:#B8DB7C}
   
  </style>
    <style
       id="style3804"
       type="text/css">
   
    .str1 {stroke:#1F1A17;stroke-width:2.76822}
    .str0 {stroke:#72706F;stroke-width:4.15233}
    .fil1 {fill:none}
    .fil3 {fill:#00923F}
    .fil2 {fill:#1F1A17}
    .fil0 {fill:#B8DB7C}
   
  </style>
    <style
       id="style3858"
       type="text/css">
   
    .str1 {stroke:#1F1A17;stroke-width:2.76822}
    .str0 {stroke:#72706F;stroke-width:4.15233}
    .fil1 {fill:none}
    .fil3 {fill:#00923F}
    .fil2 {fill:#1F1A17}
    .fil0 {fill:#B8DB7C}
   
  </style>
    <style
       id="style3926"
       type="text/css">
   
    .str2 {stroke:#1F1A17;stroke-width:1.05469}
    .str3 {stroke:#1F1A17;stroke-width:1.38411}
    .str1 {stroke:#1F1A17;stroke-width:2.76822}
    .str0 {stroke:#72706F;stroke-width:4.15233}
    .fil0 {fill:none}
    .fil3 {fill:#00923F}
    .fil1 {fill:#1F1A17}
    .fil2 {fill:#B8DB7C}
   
  </style>
    <style
       id="style3998"
       type="text/css">
   
    .str1 {stroke:#1F1A17;stroke-width:2.76822}
    .str0 {stroke:#72706F;stroke-width:4.15233}
    .fil2 {fill:none}
    .fil3 {fill:#00923F}
    .fil1 {fill:#1F1A17}
    .fil0 {fill:#B8DB7C}
   
  </style>
    <style
       id="style4042"
       type="text/css">
   
    .str1 {stroke:#1F1A17;stroke-width:2.76822}
    .str0 {stroke:#72706F;stroke-width:4.15233}
    .fil2 {fill:none}
    .fil3 {fill:#00923F}
    .fil1 {fill:#1F1A17}
    .fil0 {fill:#B8DB7C}
   
  </style>
    <style
       id="style4086"
       type="text/css">
   
    .str1 {stroke:#1F1A17;stroke-width:2.34375}
    .str0 {stroke:#72706F;stroke-width:3.51563}
    .fil3 {fill:none}
    .fil2 {fill:#1F1A17}
    .fil0 {fill:#00923F;fill-rule:nonzero}
    .fil1 {fill:#B8DB7C;fill-rule:nonzero}
   
  </style>
    <style
       id="style4130"
       type="text/css">
   
    .str1 {stroke:#1F1A17;stroke-width:2.76822}
    .str0 {stroke:#72706F;stroke-width:4.15233}
    .fil2 {fill:none}
    .fil3 {fill:#00923F}
    .fil1 {fill:#1F1A17}
    .fil0 {fill:#B8DB7C}
   
  </style>
    <style
       id="style4181"
       type="text/css">
   
    .str1 {stroke:#1F1A17;stroke-width:2.76822}
    .str0 {stroke:#72706F;stroke-width:4.15233}
    .fil2 {fill:none}
    .fil3 {fill:#00923F}
    .fil1 {fill:#1F1A17}
    .fil0 {fill:#B8DB7C}
   
  </style>
    <style
       id="style4232"
       type="text/css">
   
    .str0 {stroke:#1F1A17;stroke-width:1.84225}
    .str1 {stroke:#72706F;stroke-width:2.76406}
    .fil3 {fill:none}
    .fil4 {fill:#00923F}
    .fil2 {fill:#1F1A17}
    .fil0 {fill:#B8DB7C}
    .fil1 {fill:#72706F;fill-rule:nonzero}
   
  </style>
    <style
       id="style4418"
       type="text/css">
   
    .str0 {stroke:#1F1A17;stroke-width:1.84225}
    .str1 {stroke:#72706F;stroke-width:2.76406}
    .fil3 {fill:none}
    .fil4 {fill:#00923F}
    .fil2 {fill:#1F1A17}
    .fil0 {fill:#B8DB7C}
    .fil1 {fill:#72706F;fill-rule:nonzero}
   
  </style>
    <style
       id="style4604"
       type="text/css">
   
    .str0 {stroke:#1F1A17;stroke-width:1.84225}
    .str1 {stroke:#72706F;stroke-width:2.76406}
    .fil3 {fill:none}
    .fil4 {fill:#00923F}
    .fil2 {fill:#1F1A17}
    .fil0 {fill:#B8DB7C}
    .fil1 {fill:#72706F;fill-rule:nonzero}
   
  </style>
    <style
       id="style4790"
       type="text/css">
   
    .str0 {stroke:#1F1A17;stroke-width:1.84225}
    .str1 {stroke:#72706F;stroke-width:2.76406}
    .fil3 {fill:none}
    .fil4 {fill:#00923F}
    .fil2 {fill:#1F1A17}
    .fil0 {fill:#B8DB7C}
    .fil1 {fill:#72706F;fill-rule:nonzero}
   
  </style>
    <style
       id="style4976"
       type="text/css">
   
    .str1 {stroke:#1F1A17;stroke-width:2.76822}
    .str0 {stroke:#72706F;stroke-width:4.15233}
    .fil2 {fill:none}
    .fil3 {fill:#00923F}
    .fil1 {fill:#1F1A17}
    .fil0 {fill:#B8DB7C}
   
  </style>
    <style
       id="style5094"
       type="text/css">
   
    .str1 {stroke:#1F1A17;stroke-width:2.76822}
    .str0 {stroke:#72706F;stroke-width:4.15233}
    .fil2 {fill:none}
    .fil3 {fill:#00923F}
    .fil1 {fill:#1F1A17}
    .fil0 {fill:#B8DB7C}
   
  </style>
    <style
       id="style5138"
       type="text/css">
   
    .str1 {stroke:#1F1A17;stroke-width:2.76822}
    .str0 {stroke:#72706F;stroke-width:4.15233}
    .fil2 {fill:none}
    .fil3 {fill:#00923F}
    .fil1 {fill:#1F1A17}
    .fil0 {fill:#B8DB7C}
   
  </style>
    <style
       id="style5252"
       type="text/css">
   
    .str2 {stroke:#1F1A17;stroke-width:1.05469}
    .str1 {stroke:#1F1A17;stroke-width:2.76822}
    .str0 {stroke:#72706F;stroke-width:4.15233}
    .fil2 {fill:none}
    .fil3 {fill:#00923F}
    .fil1 {fill:#1F1A17}
    .fil0 {fill:#B8DB7C}
   
  </style>
    <style
       id="style5323"
       type="text/css">
   
    .str1 {stroke:#1F1A17;stroke-width:2.76822}
    .str0 {stroke:#72706F;stroke-width:4.15233}
    .fil2 {fill:none}
    .fil3 {fill:#00923F}
    .fil1 {fill:#1F1A17}
    .fil0 {fill:#B8DB7C}
   
  </style>
    <style
       id="style5553"
       type="text/css">
   
    .str1 {stroke:#1F1A17;stroke-width:1.38411}
    .str2 {stroke:#1F1A17;stroke-width:2.76822}
    .str0 {stroke:#72706F;stroke-width:4.15233}
    .str4 {stroke:#1F1A17;stroke-width:0.895518}
    .str3 {stroke:#72706F;stroke-width:1.34259}
    .fil2 {fill:none}
    .fil0 {fill:#00923F}
    .fil1 {fill:#1F1A17}
    .fil3 {fill:#B8DB7C}
    .fil5 {fill:#1F1A17;fill-rule:nonzero}
    .fil4 {fill:#72706F;fill-rule:nonzero}
    .fil6 {fill:#B8DB7C;fill-rule:nonzero}
   
  </style>
    <style
       id="style5669"
       type="text/css">
   
    .str1 {stroke:#1F1A17;stroke-width:1.38411}
    .str2 {stroke:#1F1A17;stroke-width:2.76822}
    .str0 {stroke:#72706F;stroke-width:4.15233}
    .fil2 {fill:none}
    .fil0 {fill:#00923F}
    .fil1 {fill:#1F1A17}
    .fil3 {fill:#B8DB7C}
   
  </style>
    <linearGradient
       id="linearGradient1586">
      <stop
         style="stop-color:#c57e4f;stop-opacity:1.0000000;"
         offset="0.0000000"
         id="stop1587" />
      <stop
         style="stop-color:#91371a;stop-opacity:1.0000000;"
         offset="1.0000000"
         id="stop1588" />
    </linearGradient>
    <linearGradient
       id="linearGradient1591">
      <stop
         style="stop-color:#d5cb4f;stop-opacity:1.0000000;"
         offset="0.0000000"
         id="stop1592" />
      <stop
         style="stop-color:#cda81f;stop-opacity:1.0000000;"
         offset="1.0000000"
         id="stop1593" />
    </linearGradient>
  </defs>
  <sodipodi:namedview
     id="base"
     pagecolor="#ffffff"
     bordercolor="#666666"
     borderopacity="1.0"
     inkscape:pageopacity="0.0"
     inkscape:pageshadow="2"
     inkscape:zoom="1.283147"
     inkscape:cx="252.14577"
     inkscape:cy="111.82763"
     inkscape:document-units="px"
     inkscape:current-layer="layer1"
     showgrid="false"
     showguides="true"
     inkscape:guide-bbox="true"
     inkscape:window-width="1918"
     inkscape:window-height="1007"
     inkscape:window-x="0"
     inkscape:window-y="25"
     inkscape:window-maximized="1" />
  <metadata
     id="metadata7">
    <rdf:RDF>
      <cc:Work
         rdf:about="">
        <dc:format>image/svg+xml</dc:format>
        <dc:type
           rdf:resource="http://purl.org/dc/dcmitype/StillImage" />
        <dc:title></dc:title>
      </cc:Work>
    </rdf:RDF>
  </metadata>
  <g
     inkscape:label="Capa 1"
     inkscape:groupmode="layer"
     id="layer1"
     transform="translate(0,-796.36218)">
    <g
       id="g4017"
       transform="translate(-9.1241767,1.5586679)">
      <g
         id="g4005"
         transform="matrix(0.53060108,-0.35309665,0.36656379,0.55083827,-395.22922,551.71881)">
        <path
           style="fill:#b8db7c;fill-opacity:1;fill-rule:evenodd"
           id="path4007"
           d="m 391.27389,1041.2048 c -7.415,-1.986 -20.171,-8.103 -20.719,-16.907 -0.632,-10.158 11.647,-18.961 19.749,-22.655 -6.35,0.861 -12.103,-1.744 -12.611,-8.66097 -0.423,-5.763 -1.535,-15.232 2.356,-20.093 4.621,-5.772 15.01,-3.702 19.957,0.485 4.996,4.229 2.047,12.066 0.901,17.668 0.682,-4.122 5.228,-7.147 8.396,-9.393 2.725,-1.933 6.001,-5.576 9.413,-6.197 5.32,-0.969 18.531,5.95 17.393,12.229 -0.283,1.562 -3.019,8.019 -0.381,6.964 2.177,-0.871 3.687,-2.442 6.098,-2.979 7.478,-1.669 14.505,10.74197 14.379,16.90497 -0.139,6.788 -8.277,11.712 -14.206,12.681 -2.343,0.383 -5.985,-0.194 -7.899,1.454 -1.729,1.489 -1.768,4.857 -2.633,6.858 -3.358,7.767 -11.581,10.551 -19.264,12.195 -4.47,0.957 -9.033,1.581 -13.582,2.01 -4.122,0.388 -4.977,0.99 -7.347,-2.564"
           inkscape:connector-curvature="0" />
        <path
           style="fill-rule:evenodd"
           id="path4009"
           d="m 399.22389,988.60683 c 3.316,-5.858 5.076,-13.607 -1.386,-18.049 -4.586,-3.152 -12.178,-3.618 -17.149,-1.431 -5.519,2.428 -9.046,9.221 -8.228,15.232 0.499,3.666 1.943,6.944 4.242,9.86 2.211,2.806 3.033,3.334 6.583,3.187 -6.456,-0.813 -9.733,-10.198 -9.354,-15.797 0.454,-6.7 5.064,-11.83 11.71,-12.472 4.667,-0.451 9.63,0.787 13.086,4.026 3.847,3.606 2.818,13.951 -1.792,16.552 0.757,-0.366 1.507,-0.799 2.288,-1.108"
           inkscape:connector-curvature="0" />
        <path
           style="fill-rule:evenodd"
           id="path4011"
           d="m 423.75389,999.20783 c 5.084,-2.826 9.974,-8.421 8.176,-14.62 -1.316,-4.54 -7.489,-9.664 -12.087,-10.759 -5.669,-1.351 -11.343,-0.154 -15.144,4.593 -4.111,5.135 -3.16,10.753 2.494,13.58 -6.016,-5.042 -3.235,-11.745 2.218,-15.832 4.292,-3.216 9.908,-1.816 14.066,0.797 3.667,2.305 7.643,6.178 7.38,10.878 -0.243,4.34 -4.957,11.177 -9.736,11.294 0.877,0.023 1.755,0.047 2.633,0.069"
           inkscape:connector-curvature="0" />
        <path
           style="fill-rule:evenodd"
           id="path4013"
           d="m 432.41489,1022.1418 c 6.987,1.208 12.651,0.441 18.017,-4.538 5.324,-4.94 4.889,-10.966 2.252,-17.288 -2.403,-5.76097 -8.216,-9.61297 -14.517,-9.00697 -7.219,0.695 -12.147,6.483 -8.385,13.02597 -2.579,-7.45497 5.146,-12.53697 11.884,-11.64097 5.532,0.736 9.038,5.133 10.706,10.18597 4.058,12.293 -10.546,23.682 -22.035,17.668 0.693,0.531 1.377,1.074 2.078,1.594"
           inkscape:connector-curvature="0" />
        <path
           style="fill-rule:evenodd"
           id="path4015"
           d="m 385.91889,998.44583 c -7.23,5.21897 -18.333,6.67297 -19.021,17.59897 -0.576,9.141 6.555,16.463 13.442,21.479 6.981,5.084 16.446,6.979 24.911,5.889 8.89,-1.146 21.02,-5.134 24.184,-14.619 2.42,-7.253 -2.837,-10.218 -8.315,-12.957 3.624,2.485 5.958,6.874 5.82,11.294 -0.18,5.754 -4.978,9.439 -9.493,12.264 -7.594,4.751 -16.381,6.25 -24.98,3.603 -10.892,-3.354 -28.236,-17.138 -22.486,-30.555 3.515,-8.202 13.552,-11.027 21.62,-11.986 -1.894,-0.67097 -3.788,-1.34097 -5.682,-2.01097"
           inkscape:connector-curvature="0" />
      </g>
      <g
         transform="matrix(0.63734979,0,0,0.63734979,-110.56189,363.2846)"
         id="g3974">
        <path
           inkscape:connector-curvature="0"
           d="m 391.27389,1041.2048 c -7.415,-1.986 -20.171,-8.103 -20.719,-16.907 -0.632,-10.158 11.647,-18.961 19.749,-22.655 -6.35,0.861 -12.103,-1.744 -12.611,-8.66097 -0.423,-5.763 -1.535,-15.232 2.356,-20.093 4.621,-5.772 15.01,-3.702 19.957,0.485 4.996,4.229 2.047,12.066 0.901,17.668 0.682,-4.122 5.228,-7.147 8.396,-9.393 2.725,-1.933 6.001,-5.576 9.413,-6.197 5.32,-0.969 18.531,5.95 17.393,12.229 -0.283,1.562 -3.019,8.019 -0.381,6.964 2.177,-0.871 3.687,-2.442 6.098,-2.979 7.478,-1.669 14.505,10.74197 14.379,16.90497 -0.139,6.788 -8.277,11.712 -14.206,12.681 -2.343,0.383 -5.985,-0.194 -7.899,1.454 -1.729,1.489 -1.768,4.857 -2.633,6.858 -3.358,7.767 -11.581,10.551 -19.264,12.195 -4.47,0.957 -9.033,1.581 -13.582,2.01 -4.122,0.388 -4.977,0.99 -7.347,-2.564"
           id="path1442"
           style="fill:#b8db7c;fill-opacity:1;fill-rule:evenodd" />
        <path
           inkscape:connector-curvature="0"
           d="m 399.22389,988.60683 c 3.316,-5.858 5.076,-13.607 -1.386,-18.049 -4.586,-3.152 -12.178,-3.618 -17.149,-1.431 -5.519,2.428 -9.046,9.221 -8.228,15.232 0.499,3.666 1.943,6.944 4.242,9.86 2.211,2.806 3.033,3.334 6.583,3.187 -6.456,-0.813 -9.733,-10.198 -9.354,-15.797 0.454,-6.7 5.064,-11.83 11.71,-12.472 4.667,-0.451 9.63,0.787 13.086,4.026 3.847,3.606 2.818,13.951 -1.792,16.552 0.757,-0.366 1.507,-0.799 2.288,-1.108"
           id="path1466"
           style="fill-rule:evenodd" />
        <path
           inkscape:connector-curvature="0"
           d="m 423.75389,999.20783 c 5.084,-2.826 9.974,-8.421 8.176,-14.62 -1.316,-4.54 -7.489,-9.664 -12.087,-10.759 -5.669,-1.351 -11.343,-0.154 -15.144,4.593 -4.111,5.135 -3.16,10.753 2.494,13.58 -6.016,-5.042 -3.235,-11.745 2.218,-15.832 4.292,-3.216 9.908,-1.816 14.066,0.797 3.667,2.305 7.643,6.178 7.38,10.878 -0.243,4.34 -4.957,11.177 -9.736,11.294 0.877,0.023 1.755,0.047 2.633,0.069"
           id="path1468"
           style="fill-rule:evenodd" />
        <path
           inkscape:connector-curvature="0"
           d="m 432.41489,1022.1418 c 6.987,1.208 12.651,0.441 18.017,-4.538 5.324,-4.94 4.889,-10.966 2.252,-17.288 -2.403,-5.76097 -8.216,-9.61297 -14.517,-9.00697 -7.219,0.695 -12.147,6.483 -8.385,13.02597 -2.579,-7.45497 5.146,-12.53697 11.884,-11.64097 5.532,0.736 9.038,5.133 10.706,10.18597 4.058,12.293 -10.546,23.682 -22.035,17.668 0.693,0.531 1.377,1.074 2.078,1.594"
           id="path1470"
           style="fill-rule:evenodd" />
        <path
           inkscape:connector-curvature="0"
           d="m 385.91889,998.44583 c -7.23,5.21897 -18.333,6.67297 -19.021,17.59897 -0.576,9.141 6.555,16.463 13.442,21.479 6.981,5.084 16.446,6.979 24.911,5.889 8.89,-1.146 21.02,-5.134 24.184,-14.619 2.42,-7.253 -2.837,-10.218 -8.315,-12.957 3.624,2.485 5.958,6.874 5.82,11.294 -0.18,5.754 -4.978,9.439 -9.493,12.264 -7.594,4.751 -16.381,6.25 -24.98,3.603 -10.892,-3.354 -28.236,-17.138 -22.486,-30.555 3.515,-8.202 13.552,-11.027 21.62,-11.986 -1.894,-0.67097 -3.788,-1.34097 -5.682,-2.01097"
           id="path1472"
           style="fill-rule:evenodd" />
      </g>
      <g
         id="g3981"
         transform="matrix(0.1264631,-0.40838176,0.40838176,0.1264631,-355.03494,1062.8889)">
        <path
           style="fill:#b8db7c;fill-opacity:1;fill-rule:evenodd"
           id="path3983"
           d="m 391.27389,1041.2048 c -7.415,-1.986 -20.171,-8.103 -20.719,-16.907 -0.632,-10.158 11.647,-18.961 19.749,-22.655 -6.35,0.861 -12.103,-1.744 -12.611,-8.66097 -0.423,-5.763 -1.535,-15.232 2.356,-20.093 4.621,-5.772 15.01,-3.702 19.957,0.485 4.996,4.229 2.047,12.066 0.901,17.668 0.682,-4.122 5.228,-7.147 8.396,-9.393 2.725,-1.933 6.001,-5.576 9.413,-6.197 5.32,-0.969 18.531,5.95 17.393,12.229 -0.283,1.562 -3.019,8.019 -0.381,6.964 2.177,-0.871 3.687,-2.442 6.098,-2.979 7.478,-1.669 14.505,10.74197 14.379,16.90497 -0.139,6.788 -8.277,11.712 -14.206,12.681 -2.343,0.383 -5.985,-0.194 -7.899,1.454 -1.729,1.489 -1.768,4.857 -2.633,6.858 -3.358,7.767 -11.581,10.551 -19.264,12.195 -4.47,0.957 -9.033,1.581 -13.582,2.01 -4.122,0.388 -4.977,0.99 -7.347,-2.564"
           inkscape:connector-curvature="0" />
        <path
           style="fill-rule:evenodd"
           id="path3985"
           d="m 399.22389,988.60683 c 3.316,-5.858 5.076,-13.607 -1.386,-18.049 -4.586,-3.152 -12.178,-3.618 -17.149,-1.431 -5.519,2.428 -9.046,9.221 -8.228,15.232 0.499,3.666 1.943,6.944 4.242,9.86 2.211,2.806 3.033,3.334 6.583,3.187 -6.456,-0.813 -9.733,-10.198 -9.354,-15.797 0.454,-6.7 5.064,-11.83 11.71,-12.472 4.667,-0.451 9.63,0.787 13.086,4.026 3.847,3.606 2.818,13.951 -1.792,16.552 0.757,-0.366 1.507,-0.799 2.288,-1.108"
           inkscape:connector-curvature="0" />
        <path
           style="fill-rule:evenodd"
           id="path3987"
           d="m 423.75389,999.20783 c 5.084,-2.826 9.974,-8.421 8.176,-14.62 -1.316,-4.54 -7.489,-9.664 -12.087,-10.759 -5.669,-1.351 -11.343,-0.154 -15.144,4.593 -4.111,5.135 -3.16,10.753 2.494,13.58 -6.016,-5.042 -3.235,-11.745 2.218,-15.832 4.292,-3.216 9.908,-1.816 14.066,0.797 3.667,2.305 7.643,6.178 7.38,10.878 -0.243,4.34 -4.957,11.177 -9.736,11.294 0.877,0.023 1.755,0.047 2.633,0.069"
           inkscape:connector-curvature="0" />
        <path
           style="fill-rule:evenodd"
           id="path3989"
           d="m 432.41489,1022.1418 c 6.987,1.208 12.651,0.441 18.017,-4.538 5.324,-4.94 4.889,-10.966 2.252,-17.288 -2.403,-5.76097 -8.216,-9.61297 -14.517,-9.00697 -7.219,0.695 -12.147,6.483 -8.385,13.02597 -2.579,-7.45497 5.146,-12.53697 11.884,-11.64097 5.532,0.736 9.038,5.133 10.706,10.18597 4.058,12.293 -10.546,23.682 -22.035,17.668 0.693,0.531 1.377,1.074 2.078,1.594"
           inkscape:connector-curvature="0" />
        <path
           style="fill-rule:evenodd"
           id="path3991"
           d="m 385.91889,998.44583 c -7.23,5.21897 -18.333,6.67297 -19.021,17.59897 -0.576,9.141 6.555,16.463 13.442,21.479 6.981,5.084 16.446,6.979 24.911,5.889 8.89,-1.146 21.02,-5.134 24.184,-14.619 2.42,-7.253 -2.837,-10.218 -8.315,-12.957 3.624,2.485 5.958,6.874 5.82,11.294 -0.18,5.754 -4.978,9.439 -9.493,12.264 -7.594,4.751 -16.381,6.25 -24.98,3.603 -10.892,-3.354 -28.236,-17.138 -22.486,-30.555 3.515,-8.202 13.552,-11.027 21.62,-11.986 -1.894,-0.67097 -3.788,-1.34097 -5.682,-2.01097"
           inkscape:connector-curvature="0" />
      </g>
      <g
         transform="matrix(0.42749244,-0.00433562,0.00433562,0.42749244,36.296362,579.54753)"
         id="g3993">
        <path
           inkscape:connector-curvature="0"
           d="m 391.27389,1041.2048 c -7.415,-1.986 -20.171,-8.103 -20.719,-16.907 -0.632,-10.158 11.647,-18.961 19.749,-22.655 -6.35,0.861 -12.103,-1.744 -12.611,-8.66097 -0.423,-5.763 -1.535,-15.232 2.356,-20.093 4.621,-5.772 15.01,-3.702 19.957,0.485 4.996,4.229 2.047,12.066 0.901,17.668 0.682,-4.122 5.228,-7.147 8.396,-9.393 2.725,-1.933 6.001,-5.576 9.413,-6.197 5.32,-0.969 18.531,5.95 17.393,12.229 -0.283,1.562 -3.019,8.019 -0.381,6.964 2.177,-0.871 3.687,-2.442 6.098,-2.979 7.478,-1.669 14.505,10.74197 14.379,16.90497 -0.139,6.788 -8.277,11.712 -14.206,12.681 -2.343,0.383 -5.985,-0.194 -7.899,1.454 -1.729,1.489 -1.768,4.857 -2.633,6.858 -3.358,7.767 -11.581,10.551 -19.264,12.195 -4.47,0.957 -9.033,1.581 -13.582,2.01 -4.122,0.388 -4.977,0.99 -7.347,-2.564"
           id="path3995"
           style="fill:#b8db7c;fill-opacity:1;fill-rule:evenodd" />
        <path
           inkscape:connector-curvature="0"
           d="m 399.22389,988.60683 c 3.316,-5.858 5.076,-13.607 -1.386,-18.049 -4.586,-3.152 -12.178,-3.618 -17.149,-1.431 -5.519,2.428 -9.046,9.221 -8.228,15.232 0.499,3.666 1.943,6.944 4.242,9.86 2.211,2.806 3.033,3.334 6.583,3.187 -6.456,-0.813 -9.733,-10.198 -9.354,-15.797 0.454,-6.7 5.064,-11.83 11.71,-12.472 4.667,-0.451 9.63,0.787 13.086,4.026 3.847,3.606 2.818,13.951 -1.792,16.552 0.757,-0.366 1.507,-0.799 2.288,-1.108"
           id="path3997"
           style="fill-rule:evenodd" />
        <path
           inkscape:connector-curvature="0"
           d="m 423.75389,999.20783 c 5.084,-2.826 9.974,-8.421 8.176,-14.62 -1.316,-4.54 -7.489,-9.664 -12.087,-10.759 -5.669,-1.351 -11.343,-0.154 -15.144,4.593 -4.111,5.135 -3.16,10.753 2.494,13.58 -6.016,-5.042 -3.235,-11.745 2.218,-15.832 4.292,-3.216 9.908,-1.816 14.066,0.797 3.667,2.305 7.643,6.178 7.38,10.878 -0.243,4.34 -4.957,11.177 -9.736,11.294 0.877,0.023 1.755,0.047 2.633,0.069"
           id="path3999"
           style="fill-rule:evenodd" />
        <path
           inkscape:connector-curvature="0"
           d="m 432.41489,1022.1418 c 6.987,1.208 12.651,0.441 18.017,-4.538 5.324,-4.94 4.889,-10.966 2.252,-17.288 -2.403,-5.76097 -8.216,-9.61297 -14.517,-9.00697 -7.219,0.695 -12.147,6.483 -8.385,13.02597 -2.579,-7.45497 5.146,-12.53697 11.884,-11.64097 5.532,0.736 9.038,5.133 10.706,10.18597 4.058,12.293 -10.546,23.682 -22.035,17.668 0.693,0.531 1.377,1.074 2.078,1.594"
           id="path4001"
           style="fill-rule:evenodd" />
        <path
           inkscape:connector-curvature="0"
           d="m 385.91889,998.44583 c -7.23,5.21897 -18.333,6.67297 -19.021,17.59897 -0.576,9.141 6.555,16.463 13.442,21.479 6.981,5.084 16.446,6.979 24.911,5.889 8.89,-1.146 21.02,-5.134 24.184,-14.619 2.42,-7.253 -2.837,-10.218 -8.315,-12.957 3.624,2.485 5.958,6.874 5.82,11.294 -0.18,5.754 -4.978,9.439 -9.493,12.264 -7.594,4.751 -16.381,6.25 -24.98,3.603 -10.892,-3.354 -28.236,-17.138 -22.486,-30.555 3.515,-8.202 13.552,-11.027 21.62,-11.986 -1.894,-0.67097 -3.788,-1.34097 -5.682,-2.01097"
           id="path4003"
           style="fill-rule:evenodd" />
      </g>
    </g>
    <g
       id="g4043"
       transform="matrix(0.93991551,-0.34140713,0.34140713,0.93991551,-326.14795,111.07101)">
      <path
         style="fill:#00923f;fill-opacity:1;fill-rule:evenodd;stroke:none"
         sodipodi:nodetypes="ccccccccc"
         id="path919"
         d="m 201.24711,811.78796 c 0.70016,-0.0586 -19.70253,17.6512 -22.93644,22.42615 -6.67643,6.50573 -17.92746,22.65702 -22.3688,29.21474 -6.36881,9.40376 -18.70149,19.54263 -21.28376,25.706 -0.81103,6.10642 4.87775,10.88788 10.84099,9.06758 2.31012,-3.98456 7.91722,-12.79339 15.936,-23.04202 9.53166,-12.45629 37.30524,-36.79084 39.06112,-39.38343 2.55028,-3.76558 14.16369,-11.94723 13.9221,-14.83629 -0.59956,-7.16994 -7.62869,-9.61619 -13.17121,-9.15273 z"
         inkscape:connector-curvature="0" />
      <path
         style="fill:#b8db7c;fill-opacity:1;fill-rule:evenodd;stroke:none"
         sodipodi:nodetypes="cccccccccccccc"
         id="path920"
         d="m 30.084217,957.85286 c 14.259482,-11.30527 33.533652,-30.70513 35.479309,-35.59604 18.630349,-27.13088 35.288514,-28.08762 46.107864,-20.75286 7.89001,-12.51702 15.04814,-16.53709 23.03324,-17.20481 4.20837,2.91081 14.0843,5.07106 15.08145,16.9957 0.53296,6.37351 -8.64437,21.0276 -16.78965,23.73945 1.30626,3.29967 2.49212,6.86731 3.55523,10.77333 0.66368,14.47689 -11.10593,25.17967 -19.28425,34.35331 -12.62921,17.65774 -34.730028,30.84626 -55.504476,39.03656 -1.258606,-1.502 -4.771887,-5.5976 -7.30877,-3.0144 -2.610782,-3.5143 -5.071342,-15.08563 -8.8011,-13.11847 -2.915723,-4.29334 -1.636842,-15.03029 -6.491571,-11.82261 -2.90865,-4.80277 -2.456381,-17.84439 -6.464001,-9.17055 -2.496027,-4.53211 -0.935475,-10.73729 -2.613275,-14.21861 z"
         inkscape:connector-curvature="0" />
      <path
         style="fill:#1f1a17;fill-opacity:1;fill-rule:evenodd;stroke:none"
         sodipodi:nodetypes="cccccccccccccccccccccccccccccccccccccccccccccccccccccccccccccccccccccccccccccccccccccccccccccccc"
         id="path1621"
         d="m 27.362502,957.82149 c 11.919473,-9.7174 23.268889,-20.20656 33.262257,-31.91466 3.495902,-5.13844 6.926931,-10.39287 11.246921,-14.92443 7.342101,-8.0153 17.455357,-15.47878 28.91685,-14.20082 3.73557,0.33389 7.07025,2.01793 10.17544,4.00467 8.23606,-13.39148 16.034,-17.84961 24.53835,-18.56076 l 0.51434,-0.0429 0.34834,0.29457 c 0.22487,0.15562 0.81243,0.46183 1.08778,0.62119 2.83797,-3.62802 6.06856,-7.0259 9.09441,-10.47155 4.75732,-4.81659 8.80573,-10.23638 12.52715,-15.87313 5.96054,-8.49859 12.07562,-16.94628 19.18431,-24.52235 6.38531,-7.34233 13.91605,-13.58405 20.96429,-20.26883 1.81729,-2.27225 2.45927,-1.7653 4.30167,-1.97822 5.69199,-0.11246 11.84214,3.61177 12.52371,9.63494 0.36541,3.82489 -3.63972,6.05737 -5.95533,8.52581 -3.40332,3.03222 -6.8298,6.05072 -9.68399,9.61449 -12.22224,11.73654 -25.044,22.96803 -36.1061,35.84268 -5.18228,6.38016 -9.89721,13.18037 -14.30468,20.16512 0.95916,1.8882 1.81804,3.93441 2.04319,6.62691 0.34808,4.16256 -2.35611,10.01013 -6.10343,15.27121 -3.47814,4.8832 -7.9211,9.08444 -12.55558,10.11359 0.40593,1.06957 4.84328,9.74998 4.08113,13.84753 -0.73139,10.35621 -8.4898,19.8553 -15.28847,27.09927 -2.06477,2.4946 -3.47515,3.23262 -5.61664,4.23935 -0.81762,2.33699 -4.96849,8.04212 -7.41991,10.18734 -14.235554,12.91124 -31.085186,22.82059 -48.90199,29.92069 -1.627679,-1.6681 -4.452564,-5.9493 -6.724771,-2.9984 -1.8065,0.1344 -2.912844,-4.3473 -3.875366,-6.0852 -1.344631,-2.08145 -2.070619,-8.36788 -5.375778,-6.9957 -2.073683,-1.85676 -2.615682,-5.59079 -3.163441,-8.4107 0.104416,-3.45913 -1.79498,-4.31095 -3.735366,-3.63682 -2.321452,-3.46069 -2.454008,-7.75793 -3.753706,-11.59836 -1.042855,0.54963 -1.571228,5.52971 -2.54948,2.80281 -3.193856,-4.55669 -1.698598,-10.38758 -3.294027,-15.39176 -0.134056,-0.3125 -0.268061,-0.62498 -0.402083,-0.93749 z m 3.043398,0.78136 c 1.415599,2.76173 -0.101887,9.80934 2.456685,10.02355 3.045166,-2.88906 6.09082,-6.88866 9.748294,-9.61985 10.091351,-7.55311 18.752517,-12.29004 27.676319,-24.39084 2.240023,-1.85753 5.89381,-7.93683 10.347736,-11.74169 -3.619648,9.57399 -11.662727,16.42497 -18.970386,23.20965 -8.042809,7.39575 -17.065301,13.78687 -24.52672,21.79679 -2.451767,3.14965 0.91961,7.47712 1.385471,11.149 2.918839,2.93899 4.822444,-4.91094 8.088364,-6.24404 11.254011,-10.25847 20.680068,-11.7083 29.626537,-24.29495 2.068705,-1.59918 4.690226,-6.82782 8.944533,-9.9411 -4.286083,10.14723 -14.204778,18.2953 -22.436259,25.11799 -6.836933,5.71549 -13.85356,9.25707 -19.347378,16.37867 -1.571413,1.76844 -1.696391,0.70316 -0.42763,3.40227 1.115692,3.11756 1.004557,11.78048 5.68648,6.84017 14.196631,-9.89839 22.573081,-12.13012 34.437618,-24.82673 1.950995,-1.71444 8.313868,-7.46305 11.639154,-11.00805 -8.024222,10.86795 -18.977078,19.07462 -29.572129,27.26846 -5.504882,4.12689 -11.123543,8.11976 -16.87338,11.89893 2.464281,3.26875 3.486909,7.34292 5.505472,10.86922 15.519519,-11.88652 19.086794,-14.66957 35.423266,-25.42708 1.516891,-2.47843 16.818223,-10.79445 15.727793,-8.56611 -14.188568,8.8261 -27.343389,19.1822 -40.672734,29.23255 -1.848148,2.47314 -9.774517,4.69404 -4.594922,6.98774 2.406466,2.6612 6.465957,-1.7021 9.514608,-2.3494 17.015589,-8.26378 33.315518,-18.75939 45.852548,-33.09691 0.44665,-0.60367 0.92897,-0.70974 1.40083,-1.29967 -4.00342,-1.61715 -9.97338,-9.21905 -11.84125,-11.29333 -8.40806,-11.69141 -9.025052,-16.20967 -14.999197,-29.1738 -0.48915,-0.84191 -3.84101,-7.4534 -4.502793,-8.16922 4.887412,4.56008 5.831274,7.29833 8.12526,10.45593 5.374056,12.69197 13.92815,27.23001 23.46677,37.52941 5.94014,-7.36845 13.43669,-13.89582 16.24863,-23.24101 1.42319,-4.72754 3.00563,-9.96733 1.01506,-14.58677 -0.53795,-1.84089 -3.76583,-9.53056 -4.47816,-11.34356 -1.46669,0.048 -7.48533,-11.58136 -19.5659,-17.20337 -0.01,-0.007 0.003,-0.0578 -0.005,-0.0644 -1.65411,-1.18839 -3.3665,-2.20592 -5.4067,-2.72017 -9.433261,-3.19383 -19.242081,1.75696 -26.127252,8.07616 -6.128188,5.44699 -11.039166,12.11891 -15.440852,18.96535 -9.702118,11.54189 -20.901209,21.83293 -32.528403,31.4001 z m 82.74978,-56.38137 c 0.58245,0.42088 15.6294,12.80413 19.24556,21.11459 3.45386,-0.59461 7.9882,-4.38008 11.40393,-9.17565 3.53189,-4.95857 5.88796,-10.88007 5.66459,-13.55126 -0.1433,-1.71503 -0.7235,-2.87204 -1.1906,-4.17331 -0.47765,0.78506 -2.48366,-4.0017 -5.70237,-6.25619 -0.0898,-0.70529 -7.01726,-5.18956 -7.17549,-5.29135 -7.68958,0.72711 -14.38175,4.47807 -22.24562,17.33317 z m 24.76931,-16.5731 c 2.83281,1.44701 6.39561,3.54523 9.13691,7.06956 0.66199,-1.10761 2.67279,-3.64031 3.43298,-4.62469 6.37185,-9.44571 13.21923,-18.62478 21.40717,-26.58569 8.89169,-9.07012 18.42348,-17.5056 27.43999,-26.44277 4.00034,-5.28877 10.01515,-8.65753 13.97963,-13.98762 0.61945,-2.94525 -1.69874,-5.95756 -4.29358,-7.21561 -2.55868,-1.00145 -6.47136,-2.6327 -8.33117,0.24348 -7.37382,6.88867 -15.13681,13.44976 -21.66589,21.16913 -9.02143,9.67371 -16.16518,20.84943 -23.9078,31.52087 -4.75831,6.1813 -12.34946,12.76275 -17.19824,18.85334 z"
         inkscape:connector-curvature="0" />
    </g>
  </g>
</svg>
